<?xml version="1.0" standalone="no"?><!DOCTYPE svg PUBLIC "-//W3C//DTD SVG 1.1//EN" "http://www.w3.org/Graphics/SVG/1.1/DTD/svg11.dtd"><svg t="1507807538422" class="icon" style="" viewBox="0 0 1024 1024" version="1.1" xmlns="http://www.w3.org/2000/svg" p-id="997" xmlns:xlink="http://www.w3.org/1999/xlink" width="200" height="200"><defs><style type="text/css"></style></defs><path d="M811.072 252.280889l-99.384889-75.448889c-42.766222-32.483556-103.992889-24.099556-136.469333 18.673778L286.912 575.224889c-0.832 1.095111-1.457778 2.275556-2.104889 3.441778-4.487111 4.238222-7.559111 9.884444-8.568889 16.170667l-42.083556 263.203556c-1.628444 10.183111 2.375111 20.444444 10.474667 26.823111 5.105778 4.024889 11.328 6.108444 17.621333 6.108444 3.683556 0 7.388444-0.718222 10.908444-2.176l251.299556-104.355556c6.001778-2.496 10.837333-6.926222 13.909333-12.416 0.590222-0.647111 1.265778-1.166222 1.806222-1.870222l289.578667-381.404444C862.222222 345.976889 853.838222 284.757333 811.072 252.280889zM508.088889 718.321778l-163.911111-124.444444 227.150222-299.164444 163.904 124.444444L508.088889 718.321778zM298.375111 816.725333l26.545778-166.044444 131.989333 100.209778L298.375111 816.725333zM784.433778 354.346667l-24.184889 31.850667-163.904-124.444444 24.184889-31.850667c13.504-17.792 38.968889-21.276444 56.753778-7.772444l99.377778 75.448889C794.453333 311.089778 797.937778 336.554667 784.433778 354.346667z" p-id="998" fill="#2c2c2c"></path></svg>