<?xml version="1.0" standalone="no"?><!DOCTYPE svg PUBLIC "-//W3C//DTD SVG 1.1//EN" "http://www.w3.org/Graphics/SVG/1.1/DTD/svg11.dtd"><svg t="1507860902043" class="icon" style="" viewBox="0 0 1024 1024" version="1.1" xmlns="http://www.w3.org/2000/svg" p-id="2993" xmlns:xlink="http://www.w3.org/1999/xlink" width="200" height="200"><defs><style type="text/css"></style></defs><path d="M512 0a512 512 0 1 0 0 1024A512 512 0 0 0 512 0z m175.808 706.048l-17.088 17.92a23.296 23.296 0 0 1-34.112 0L480.192 559.232c-5.376-5.696-4.736-17.088-4.736-28.352V208.256c0-14.08 10.816-25.408 24.128-25.408h24.128c13.312 0 24.128 11.392 24.128 25.408v314.432l139.968 147.392a26.368 26.368 0 0 1 0 35.968z" fill="#04d4a1" p-id="2994"></path></svg>