<?xml version="1.0" standalone="no"?><!DOCTYPE svg PUBLIC "-//W3C//DTD SVG 1.1//EN" "http://www.w3.org/Graphics/SVG/1.1/DTD/svg11.dtd"><svg t="1507807943238" class="icon" style="" viewBox="0 0 1024 1024" version="1.1" xmlns="http://www.w3.org/2000/svg" p-id="1848" xmlns:xlink="http://www.w3.org/1999/xlink" width="200" height="200"><defs><style type="text/css"></style></defs><path d="M474.874 905.748h-238.5c-46.518 0-61.875-15.354-61.875-61.875v-663.748c0-46.518 15.354-61.875 61.875-61.875h551.248c46.521 0 61.875 15.356 61.875 61.875v416.249c0 38.083-3.094 70.989-30.041 97.932l-172.458 172.462c-26.833 26.825-36.563 25.761-45.229 22.157-8.719-3.656-24.521-11.646-24.521-49.553v-144c0-46.521 15.354-57.375 61.875-57.375h139.5c28.125 0 37.125-8.104 37.125-37.125v-420.748c0-15.526-12.604-28.125-28.125-28.125h-551.249c-15.526 0-28.125 12.599-28.125 28.125v668.248c0 15.521 8.099 23.625 23.625 23.625h242.997c15.526 0 32.625 3.594 32.625 19.125 0 15.521-17.096 14.625-32.622 14.625zM639.123 671.748c-15.531 0-28.125 12.594-28.125 28.125v150.354l182.978-178.478h-154.853zM708.873 343.249h-393.749c-15.526 0-28.125-3.599-28.125-19.125s12.599-19.125 28.125-19.125h393.749c15.521 0 28.125 3.599 28.125 19.125s-12.604 19.125-28.125 19.125zM708.873 511.999h-393.749c-15.526 0-28.125-3.599-28.125-19.125s12.599-19.125 28.125-19.125h393.749c15.521 0 28.125 3.599 28.125 19.125s-12.604 19.125-28.125 19.125z" p-id="1849"></path></svg>