<?xml version="1.0" standalone="no"?><!DOCTYPE svg PUBLIC "-//W3C//DTD SVG 1.1//EN" "http://www.w3.org/Graphics/SVG/1.1/DTD/svg11.dtd"><svg t="1507880496782" class="icon" style="" viewBox="0 0 1024 1024" version="1.1" xmlns="http://www.w3.org/2000/svg" p-id="502" xmlns:xlink="http://www.w3.org/1999/xlink" width="200" height="200"><defs><style type="text/css"></style></defs><path d="M509.640256 442.807105c-73.058946 0-132.500756 59.44181-132.500756 132.500756s59.44181 132.500756 132.500756 132.500756 132.500756-59.44181 132.500756-132.500756S582.699202 442.807105 509.640256 442.807105zM888.253316 249.222131 735.286436 249.222131c0-73.220628-59.350736-132.571365-132.571365-132.571365l-183.560666 0c-73.220628 0-132.571365 59.350736-132.571365 132.571365L133.61616 249.222131c-73.220628 0-132.571365 59.350736-132.571365 132.571365l0 387.515824c0 73.220628 59.350736 132.571365 132.571365 132.571365l754.637156 0c73.220628 0 132.571365-59.350736 132.571365-132.571365l0-387.515824C1020.824681 308.572868 961.472921 249.222131 888.253316 249.222131zM510.934738 810.100352c-129.33874 0-234.548944-105.220437-234.548944-234.548944s105.210203-234.548944 234.548944-234.548944S745.483682 446.222901 745.483682 575.551408 640.273479 810.100352 510.934738 810.100352z" p-id="503" fill="#0092ff"></path></svg>